<svg
        xmlns="http://www.w3.org/2000/svg"
        xmlns:xlink="http://www.w3.org/1999/xlink"
        width="25px" height="24px">
    <path fill-rule="evenodd"  fill="rgb(255, 255, 255)"
          d="M4.238,9.948 C4.238,12.772 4.238,15.598 4.238,18.423 C5.122,18.423 6.005,18.423 6.888,18.423 C6.888,17.073 6.888,15.722 6.888,14.372 C6.888,13.774 6.791,12.940 6.982,12.493 C7.207,11.963 7.675,11.727 8.453,11.734 C8.356,12.567 7.896,13.433 8.102,14.535 C8.232,15.228 8.394,15.903 8.593,16.508 C8.593,17.146 8.593,17.785 8.593,18.423 C8.970,18.423 9.348,18.423 9.725,18.423 C9.783,18.501 9.842,18.578 9.900,18.656 C10.137,18.894 10.375,19.131 10.612,19.368 C10.923,19.673 11.360,19.838 11.721,20.092 C11.721,20.100 11.721,20.108 11.721,20.115 C9.356,20.115 6.989,20.115 4.624,20.115 C3.896,20.115 3.168,20.115 2.441,20.115 C2.114,20.115 1.704,20.155 1.448,20.069 C0.978,19.909 0.712,19.093 1.133,18.668 C1.414,18.385 1.956,18.414 2.534,18.423 C2.534,15.419 2.534,12.414 2.534,9.411 C1.852,9.028 0.484,7.324 0.982,6.037 C1.086,5.767 1.344,5.548 1.519,5.337 C1.814,4.959 2.110,4.582 2.406,4.204 C3.347,3.006 4.289,1.807 5.231,0.609 C5.797,0.091 7.415,0.294 8.464,0.294 C10.814,0.294 13.165,0.294 15.515,0.294 C16.263,0.294 18.036,0.153 18.562,0.375 C19.047,0.580 19.284,1.094 19.601,1.473 C20.060,2.056 20.519,2.640 20.978,3.224 C21.531,3.928 22.083,4.633 22.636,5.337 C22.811,5.547 23.069,5.767 23.173,6.037 C23.669,7.326 22.304,9.028 21.620,9.411 C21.620,10.045 21.620,10.679 21.620,11.314 C21.609,11.310 21.597,11.306 21.585,11.302 C21.431,10.706 21.031,10.178 20.686,9.749 C20.300,9.268 19.909,8.856 19.472,8.430 C19.283,8.246 18.998,8.091 18.749,7.975 C18.364,7.796 17.963,7.543 17.546,7.356 C16.229,6.765 13.940,6.894 12.620,7.368 C11.269,7.853 10.112,8.831 9.375,9.948 C8.340,9.966 7.336,9.366 6.923,8.734 C6.916,8.738 6.908,8.742 6.900,8.745 C6.492,9.425 5.355,9.953 4.238,9.948 ZM6.305,1.986 C5.379,3.173 4.452,4.360 3.526,5.547 C4.460,5.543 5.394,5.539 6.328,5.535 C6.752,4.352 7.176,3.169 7.600,1.986 C7.169,1.986 6.737,1.986 6.305,1.986 ZM11.243,5.547 C11.243,4.360 11.243,3.173 11.243,1.986 C10.632,1.990 10.021,1.994 9.410,1.998 C8.982,3.181 8.554,4.364 8.126,5.547 C9.165,5.547 10.204,5.547 11.243,5.547 ZM12.912,1.986 C12.912,3.173 12.912,4.360 12.912,5.547 C13.951,5.547 14.990,5.547 16.029,5.547 C15.597,4.360 15.165,3.173 14.733,1.986 C14.126,1.986 13.519,1.986 12.912,1.986 ZM16.554,1.986 C16.982,3.173 17.410,4.360 17.838,5.547 C18.768,5.547 19.698,5.547 20.628,5.547 C19.698,4.360 18.768,3.173 17.838,1.986 C17.410,1.986 16.982,1.986 16.554,1.986 ZM2.814,7.251 C3.290,8.092 4.477,8.683 5.429,7.835 C5.612,7.672 5.705,7.454 5.861,7.263 C4.846,7.259 3.830,7.255 2.814,7.251 ZM7.974,7.251 C8.451,8.093 9.635,8.685 10.589,7.835 C10.771,7.672 10.864,7.454 11.021,7.263 C10.005,7.259 8.989,7.255 7.974,7.251 ZM18.293,7.251 C18.771,8.094 19.954,8.684 20.908,7.835 C21.091,7.673 21.184,7.453 21.340,7.263 C20.325,7.259 19.309,7.255 18.293,7.251 ZM14.745,8.500 C17.628,8.463 19.598,10.084 20.278,12.224 C20.726,13.632 20.569,15.864 19.753,16.777 C19.784,17.004 20.518,17.600 20.698,17.781 C21.581,18.672 22.465,19.563 23.348,20.454 C23.629,20.735 24.575,21.386 24.212,21.948 C24.071,22.166 23.148,23.144 22.788,23.057 C22.384,22.960 21.837,22.235 21.550,21.948 C20.395,20.804 19.239,19.660 18.083,18.516 C17.229,18.986 16.123,19.588 14.675,19.392 C11.950,19.022 10.251,17.448 9.748,14.862 C9.568,13.934 9.679,12.859 9.982,12.084 C10.571,10.578 11.652,9.425 13.169,8.850 C13.534,8.753 13.900,8.656 14.266,8.559 C14.426,8.539 14.585,8.520 14.745,8.500 ZM14.966,9.773 C14.565,9.887 14.182,9.840 13.834,9.959 C12.566,10.396 11.581,11.317 11.149,12.586 C10.229,15.288 12.055,17.378 14.021,17.979 C14.384,18.090 14.920,18.203 15.433,18.131 C17.304,17.868 18.459,16.885 19.052,15.353 C19.233,14.886 19.343,14.181 19.251,13.578 C18.914,11.377 17.487,9.760 14.966,9.773 Z"/>
</svg>